<?xml version="1.0" encoding="UTF-8"?><svg xmlns="http://www.w3.org/2000/svg" xmlns:xlink="http://www.w3.org/1999/xlink" viewBox="0 0 1025 1025"><defs><style>.g{fill:url(#f);}.g,.h,.i{stroke-miterlimit:10;}.g,.i{stroke:#000;}.h{fill:#fff;stroke:#fff;stroke-width:26px;}.j{clip-path:url(#e);}.k,.i{fill:none;}.i{stroke-width:40px;}</style><clipPath id="e"><circle class="k" cx="512.5" cy="512.5" r="490.65"/></clipPath><linearGradient id="f" x1="-17.06" y1="1042.06" x2="1050.56" y2="-25.56" gradientTransform="matrix(1, 0, 0, 1, 0, 0)" gradientUnits="userSpaceOnUse"><stop offset="0" stop-color="#9895eb"/><stop offset=".15" stop-color="#9493ea"/><stop offset=".26" stop-color="#8b8dea"/><stop offset=".36" stop-color="#7b83e9"/><stop offset=".45" stop-color="#6475e9"/><stop offset=".46" stop-color="#6274e9"/><stop offset=".56" stop-color="#5989e9"/><stop offset=".74" stop-color="#4da6e9"/><stop offset=".89" stop-color="#46b7e9"/><stop offset="1" stop-color="#44bee9"/></linearGradient></defs><g id="a"/><g id="b"><g id="c"><g id="d"><g class="j"><rect class="g" x=".5" y=".5" width="1024" height="1024"/></g><path class="h" d="M881.33,716.38h-356.2c-10.19,0-18.46-8.26-18.46-18.46V427.67c0-19.31-25.91-25.66-34.83-8.53l-149.64,287.3c-3.18,6.1-9.49,9.93-16.37,9.93H169.83c-14.46,0-23.3-15.87-15.7-28.17L447.1,214.37c3.36-5.44,9.3-8.75,15.69-8.75l164.11-.1c10.2,0,18.47,8.26,18.47,18.46v376.66c0,10.29,8.42,18.6,18.71,18.46l217.08-2.9c10.3-.14,18.72,8.18,18.71,18.48l-.08,63.28c-.01,10.19-8.27,18.44-18.46,18.44Z"/><circle class="i" cx="513.03" cy="512.5" r="490.65"/></g></g></g></svg>